<svg width="120" height="40" xmlns="http://www.w3.org/2000/svg"><g fill="none" fill-rule="nonzero"><path d="M7.445 40c-.305 0-.602-.004-.904-.01a12.687 12.687 0 0 1-1.87-.164 5.884 5.884 0 0 1-1.656-.548 5.406 5.406 0 0 1-1.397-1.016 5.32 5.32 0 0 1-1.02-1.397 5.722 5.722 0 0 1-.544-1.657 12.414 12.414 0 0 1-.166-1.875c-.007-.21-.015-.913-.015-.913l.005-24.85s.009-.692.015-.895a12.37 12.37 0 0 1 .165-1.872A5.756 5.756 0 0 1 .602 3.14c.26-.518.603-.99 1.015-1.398A5.565 5.565 0 0 1 4.672.176C5.292.075 5.92.02 6.548.012L7.45 0h105.001l.913.013c.623.007 1.244.061 1.859.162a5.938 5.938 0 0 1 1.67.548 5.594 5.594 0 0 1 2.416 2.42c.26.52.44 1.076.535 1.649.104.624.162 1.255.174 1.887.003.283.003.588.003.89.007.375.007.732.007 1.092l-.004 22.679c0 .363 0 .718-.008 1.075 0 .325 0 .623-.004.93-.012.62-.069 1.24-.171 1.853a5.739 5.739 0 0 1-.54 1.67 5.48 5.48 0 0 1-1.016 1.386 5.413 5.413 0 0 1-1.4 1.022 5.862 5.862 0 0 1-1.667.55c-.618.101-1.243.156-1.87.163-.292.007-.599.011-.897.011l-1.084.002L7.445 40z" fill="#000"/><path d="M24.769 20.3a4.949 4.949 0 0 1 2.356-4.151 5.066 5.066 0 0 0-3.99-2.158c-1.68-.176-3.308 1.005-4.164 1.005-.872 0-2.19-.988-3.608-.958a5.315 5.315 0 0 0-4.473 2.727c-1.934 3.349-.491 8.27 1.361 10.977.927 1.325 2.01 2.805 3.428 2.753 1.387-.058 1.905-.885 3.58-.885 1.658 0 2.144.885 3.59.852 1.489-.025 2.426-1.332 3.32-2.67a10.962 10.962 0 0 0 1.52-3.092 4.782 4.782 0 0 1-2.92-4.4zM22.037 12.21a4.872 4.872 0 0 0 1.115-3.49 4.957 4.957 0 0 0-3.208 1.66A4.636 4.636 0 0 0 18.8 13.74a4.099 4.099 0 0 0 3.237-1.53zM42.302 27.14H37.57l-1.137 3.356h-2.005l4.484-12.418h2.083l4.483 12.418h-2.039l-1.136-3.356zm-4.243-1.55h3.752l-1.85-5.446h-.051l-1.85 5.447zM55.16 25.97c0 2.813-1.506 4.62-3.779 4.62a3.07 3.07 0 0 1-2.848-1.583h-.043v4.484H46.63V21.442h1.8v1.506h.033a3.212 3.212 0 0 1 2.883-1.6c2.298 0 3.813 1.816 3.813 4.622zm-1.91 0c0-1.833-.948-3.038-2.393-3.038-1.42 0-2.375 1.23-2.375 3.038 0 1.824.955 3.046 2.375 3.046 1.445 0 2.393-1.197 2.393-3.046zM65.125 25.97c0 2.813-1.506 4.62-3.779 4.62a3.07 3.07 0 0 1-2.848-1.583h-.043v4.484h-1.859V21.442h1.799v1.506h.034a3.212 3.212 0 0 1 2.883-1.6c2.298 0 3.813 1.816 3.813 4.622zm-1.91 0c0-1.833-.948-3.038-2.393-3.038-1.42 0-2.375 1.23-2.375 3.038 0 1.824.955 3.046 2.375 3.046 1.445 0 2.392-1.197 2.392-3.046zM71.71 27.036c.138 1.232 1.334 2.04 2.97 2.04 1.566 0 2.693-.808 2.693-1.919 0-.964-.68-1.54-2.29-1.936l-1.609-.388c-2.28-.55-3.339-1.617-3.339-3.348 0-2.142 1.867-3.614 4.519-3.614 2.624 0 4.423 1.472 4.483 3.614h-1.876c-.112-1.239-1.136-1.987-2.634-1.987-1.497 0-2.521.757-2.521 1.858 0 .878.654 1.395 2.255 1.79l1.368.336c2.548.603 3.606 1.626 3.606 3.443 0 2.323-1.85 3.778-4.793 3.778-2.754 0-4.614-1.42-4.734-3.667h1.902zM83.346 19.3v2.142h1.722v1.472h-1.722v4.991c0 .776.345 1.137 1.102 1.137.204-.004.408-.018.611-.043v1.463c-.34.063-.686.092-1.032.086-1.833 0-2.548-.689-2.548-2.445v-5.189h-1.316v-1.472h1.316V19.3h1.867zM86.065 25.97c0-2.849 1.678-4.639 4.294-4.639 2.625 0 4.295 1.79 4.295 4.639 0 2.856-1.661 4.638-4.295 4.638-2.633 0-4.294-1.782-4.294-4.638zm6.695 0c0-1.954-.895-3.108-2.401-3.108-1.506 0-2.4 1.162-2.4 3.108 0 1.962.894 3.106 2.4 3.106 1.506 0 2.401-1.144 2.401-3.106zM96.186 21.442h1.773v1.541h.043a2.16 2.16 0 0 1 2.177-1.635c.214-.001.428.022.637.069v1.738a2.598 2.598 0 0 0-.835-.112 1.873 1.873 0 0 0-1.937 2.083v5.37h-1.858v-9.054zM109.384 27.837c-.25 1.643-1.85 2.771-3.898 2.771-2.634 0-4.269-1.764-4.269-4.595 0-2.84 1.644-4.682 4.19-4.682 2.506 0 4.08 1.72 4.08 4.466v.637h-6.394v.112a2.358 2.358 0 0 0 2.436 2.564 2.048 2.048 0 0 0 2.09-1.273h1.765zm-6.282-2.702h4.526a2.177 2.177 0 0 0-2.22-2.298 2.292 2.292 0 0 0-2.306 2.298zM36.738 11.253h.798a1.002 1.002 0 0 0 1.125-.95c0-.551-.414-.907-1.116-.907a1.064 1.064 0 0 0-1.204.935h-.876a1.87 1.87 0 0 1 2.108-1.745c1.175 0 2.002.658 2.002 1.604a1.386 1.386 0 0 1-1.084 1.365v.07a1.39 1.39 0 0 1 1.327 1.443 1.993 1.993 0 0 1-2.228 1.774 1.983 1.983 0 0 1-2.241-1.765h.89c.053.57.577.939 1.35.939.774 0 1.28-.414 1.28-.997 0-.591-.476-.955-1.307-.955h-.824v-.81zM40.83 13.424c0-.81.604-1.278 1.674-1.344l1.22-.07v-.389c0-.475-.314-.744-.922-.744-.496 0-.84.182-.939.5h-.86c.09-.773.82-1.27 1.84-1.27 1.13 0 1.766.563 1.766 1.514v3.077h-.856v-.633h-.07c-.29.462-.808.732-1.353.707a1.36 1.36 0 0 1-1.5-1.348zm2.894-.384v-.377l-1.1.07c-.62.042-.901.253-.901.65 0 .405.351.64.835.64a1.061 1.061 0 0 0 1.166-.983zM46.968 10.943v3.755h-.889v-4.503h2.965v.748zM54.43 12.444c0 1.431-.724 2.328-1.86 2.328a1.468 1.468 0 0 1-1.386-.756h-.07v2.179h-.89v-6h.856v.744h.067c.28-.517.826-.833 1.414-.819 1.145 0 1.869.893 1.869 2.324zm-.914 0c0-.95-.45-1.526-1.203-1.526-.748 0-1.216.587-1.216 1.53 0 .939.467 1.526 1.212 1.526.756 0 1.207-.575 1.207-1.53zM55.613 16.31v-.765a2.1 2.1 0 0 0 .29.017.77.77 0 0 0 .815-.628l.066-.22-1.63-4.52h.968l1.129 3.577h.07l1.125-3.576h.943l-1.679 4.689c-.385 1.095-.81 1.447-1.729 1.447a3.88 3.88 0 0 1-.368-.02zM60.081 13.42h.885c.087.397.459.604.98.604.591 0 .954-.26.954-.666 0-.434-.326-.641-.955-.641h-.673v-.69h.662c.537 0 .81-.207.81-.584 0-.33-.264-.583-.81-.583-.497 0-.86.211-.918.567h-.857a1.578 1.578 0 0 1 1.775-1.32c1.07 0 1.682.485 1.682 1.246a.925.925 0 0 1-.71.921v.07c.507.066.886.502.88 1.014 0 .856-.728 1.422-1.84 1.422-.984 0-1.783-.45-1.865-1.36zM65.066 14.698v-4.503h.88v3.097h.071l2.075-3.097h.881v4.503h-.88v-3.114h-.067l-2.08 3.114zM73.826 10.943h-1.418v3.755h-.89v-3.755H70.1v-.748h3.726zM78.613 13.482a1.83 1.83 0 0 1-1.952 1.303 2.045 2.045 0 0 1-2.08-2.325 2.077 2.077 0 0 1 2.076-2.352c1.253 0 2.01.856 2.01 2.27v.31h-3.18v.05a1.19 1.19 0 0 0 1.2 1.29c.434.052.856-.164 1.07-.546h.856zm-3.126-1.451h2.273a1.086 1.086 0 0 0-1.107-1.167 1.15 1.15 0 0 0-1.166 1.167zM82.38 10.195h2.03c.882 0 1.398.446 1.398 1.145a.968.968 0 0 1-.76.951v.07c.546.035.969.491.962 1.038 0 .786-.59 1.299-1.579 1.299h-2.05v-4.503zm.881.682v1.166h.881c.537 0 .794-.207.794-.587 0-.352-.224-.58-.695-.58h-.98zm0 1.82v1.319h1.054c.525 0 .807-.232.807-.658 0-.45-.319-.662-.918-.662h-.943z" fill="#FFF"/></g></svg>